<svg width="110" height="19" viewBox="0 0 110 19" fill="none" xmlns="http://www.w3.org/2000/svg">
<path d="M8.432 18.216C6.784 18.216 5.344 17.864 4.112 17.16C2.896 16.44 1.952 15.424 1.28 14.112C0.624 12.784 0.296 11.224 0.296 9.432C0.296 7.656 0.624 6.112 1.28 4.8C1.936 3.472 2.872 2.456 4.088 1.752C5.32 1.048 6.768 0.696 8.432 0.696C10.096 0.696 11.536 1.048 12.752 1.752C13.984 2.456 14.92 3.472 15.56 4.8C16.216 6.112 16.544 7.656 16.544 9.432C16.544 11.224 16.216 12.784 15.56 14.112C14.904 15.424 13.968 16.44 12.752 17.16C11.536 17.864 10.096 18.216 8.432 18.216ZM8.432 15.744C10.016 15.744 11.248 15.2 12.128 14.112C13.008 13.024 13.448 11.464 13.448 9.432C13.448 7.416 13.008 5.872 12.128 4.8C11.248 3.712 10.016 3.168 8.432 3.168C6.848 3.168 5.616 3.704 4.736 4.776C3.856 5.848 3.416 7.4 3.416 9.432C3.416 11.464 3.856 13.024 4.736 14.112C5.616 15.2 6.848 15.744 8.432 15.744ZM31.2712 5.904L25.9672 18H23.3512L18.1192 5.904H21.2632L24.7432 14.592L28.2952 5.904H31.2712ZM43.5275 12.096H35.1755C35.2395 13.392 35.5595 14.352 36.1355 14.976C36.7275 15.584 37.5995 15.888 38.7515 15.888C40.0795 15.888 41.3115 15.456 42.4475 14.592L43.3115 16.656C42.7355 17.12 42.0235 17.496 41.1755 17.784C40.3435 18.056 39.4955 18.192 38.6315 18.192C36.6475 18.192 35.0875 17.632 33.9515 16.512C32.8155 15.392 32.2475 13.856 32.2475 11.904C32.2475 10.672 32.4955 9.576 32.9915 8.616C33.4875 7.656 34.1835 6.912 35.0795 6.384C35.9755 5.84 36.9915 5.568 38.1275 5.568C39.7915 5.568 41.1035 6.112 42.0635 7.2C43.0395 8.272 43.5275 9.752 43.5275 11.64V12.096ZM38.1995 7.728C37.3995 7.728 36.7435 7.968 36.2315 8.448C35.7355 8.912 35.4155 9.592 35.2715 10.488H40.9115C40.8155 9.576 40.5355 8.888 40.0715 8.424C39.6235 7.96 38.9995 7.728 38.1995 7.728ZM52.8959 5.592C53.3599 5.592 53.7599 5.656 54.0959 5.784L54.0719 8.52C53.5599 8.312 53.0319 8.208 52.4879 8.208C51.4639 8.208 50.6799 8.504 50.1359 9.096C49.6079 9.688 49.3439 10.472 49.3439 11.448V18H46.3679V9.312C46.3679 8.032 46.3039 6.888 46.1759 5.88H48.9839L49.2239 8.016C49.5279 7.232 50.0079 6.632 50.6639 6.216C51.3199 5.8 52.0639 5.592 52.8959 5.592ZM68.2649 5.904L62.9609 18H60.3449L55.1129 5.904H58.2569L61.7369 14.592L65.2889 5.904H68.2649ZM70.1242 5.88H73.1002V18H70.1242V5.88ZM73.2682 0.383999V3.336H69.9322V0.383999H73.2682ZM87.29 12.096H78.938C79.002 13.392 79.322 14.352 79.898 14.976C80.49 15.584 81.362 15.888 82.514 15.888C83.842 15.888 85.074 15.456 86.21 14.592L87.074 16.656C86.498 17.12 85.786 17.496 84.938 17.784C84.106 18.056 83.258 18.192 82.394 18.192C80.41 18.192 78.85 17.632 77.714 16.512C76.578 15.392 76.01 13.856 76.01 11.904C76.01 10.672 76.258 9.576 76.754 8.616C77.25 7.656 77.946 6.912 78.842 6.384C79.738 5.84 80.754 5.568 81.89 5.568C83.554 5.568 84.866 6.112 85.826 7.2C86.802 8.272 87.29 9.752 87.29 11.64V12.096ZM81.962 7.728C81.162 7.728 80.506 7.968 79.994 8.448C79.498 8.912 79.178 9.592 79.034 10.488H84.674C84.578 9.576 84.298 8.888 83.834 8.424C83.386 7.96 82.762 7.728 81.962 7.728ZM109.215 5.88L104.463 18H101.847L98.8475 10.056L95.9195 18H93.2795L88.5275 5.88H91.5995L94.7195 14.424L97.8635 5.88H100.023L103.167 14.496L106.287 5.88H109.215Z" fill="#252733"/>
</svg>
